<?xml version="1.0" encoding="utf-8"?>
<!-- Generator: Adobe Illustrator 27.9.0, SVG Export Plug-In . SVG Version: 6.00 Build 0)  -->
<svg version="1.1" id="Capa_1" xmlns="http://www.w3.org/2000/svg" xmlns:xlink="http://www.w3.org/1999/xlink" x="0px" y="0px"
	 viewBox="0 0 91.9 69" style="enable-background:new 0 0 91.9 69;" xml:space="preserve">
<style type="text/css">
	.st0{fill:#EAEAEA;}
	.st1{fill:#CA4592;}
	.st2{fill:#74BE88;}
	.st3{fill:#42A9E0;}
	.st4{fill:#E8481D;}
</style>
<g>
	<path class="st0" d="M70,69c-1.8,0-3.3-1.3-3.4-3.1c-0.2-1.9,1.2-3.6,3.1-3.8c0.1,0,4.9-0.6,7.1-3.9c1.4-2,1.6-4.7,0.7-8.1
		c-1.6-6.2-1-11.2,1.7-14.6c0.3-0.4,0.6-0.7,0.9-1c-0.3-0.3-0.6-0.6-0.9-1c-2.7-3.5-3.3-8.4-1.7-14.6c0.9-3.4,0.6-6.2-0.7-8.1
		c-2.3-3.3-7-3.8-7.1-3.8c-1.9-0.2-3.3-1.9-3.1-3.8s1.9-3.3,3.8-3.1c0.3,0,8,0.9,12.1,6.7c2.6,3.7,3.2,8.3,1.8,13.8
		c-1,4-0.9,7,0.4,8.7c1.3,1.7,3.7,1.8,3.7,1.8c1.9,0,3.5,1.5,3.5,3.5c0,1.9-1.5,3.4-3.4,3.5c-0.1,0-2.5,0.1-3.8,1.8
		s-1.4,4.7-0.4,8.6c1.4,5.5,0.8,10.1-1.8,13.8C78.4,68.2,70.8,69,70.4,69C70.3,69,70.2,69,70,69z M88.4,38L88.4,38L88.4,38z"/>
	<path class="st0" d="M21.8,69c-0.1,0-0.2,0-0.3,0c-0.3,0-8-0.9-12.1-6.7C6.8,58.6,6.2,54,7.6,48.5c1-4,0.9-6.9-0.4-8.6
		c-1.3-1.7-3.7-1.8-3.8-1.8c-1.9,0-3.4-1.6-3.4-3.5s1.5-3.4,3.4-3.5c0.1,0,2.5-0.1,3.8-1.8c1.3-1.7,1.4-4.7,0.4-8.6
		C6.2,15.2,6.8,10.6,9.4,6.9c4.1-6,11.7-6.9,12-6.9c1.9-0.2,3.6,1.2,3.8,3.1C25.4,5,24,6.7,22.1,6.9c-0.1,0-4.9,0.6-7.1,3.9
		c-1.4,2-1.6,4.7-0.7,8.1c1.6,6.2,1,11.2-1.7,14.6c-0.3,0.4-0.6,0.7-0.9,1c0.3,0.3,0.6,0.6,0.9,1c2.7,3.5,3.3,8.4,1.7,14.6
		c-0.9,3.4-0.6,6.2,0.7,8.1c2.3,3.3,7.1,3.8,7.1,3.9c1.9,0.2,3.3,1.9,3.1,3.8C25,67.7,23.5,69,21.8,69z M3.4,38L3.4,38L3.4,38z"/>
	<path class="st1" d="M68.6,24H26.5c-1.9,0-3.5-1.5-3.5-3.5c0-1.9,1.5-3.5,3.5-3.5h42.1c1.9,0,3.5,1.5,3.5,3.5
		C72,22.5,70.5,24,68.6,24z"/>
	<path class="st2" d="M35.6,39.1h-9.1c-1.9,0-3.5-1.5-3.5-3.5s1.5-3.5,3.5-3.5h9.1c1.9,0,3.5,1.5,3.5,3.5S37.5,39.1,35.6,39.1z"/>
	<path class="st3" d="M68.6,39.1H46.7c-1.9,0-3.5-1.5-3.5-3.5s1.5-3.5,3.5-3.5h21.9c1.9,0,3.5,1.5,3.5,3.5S70.5,39.1,68.6,39.1z"/>
	<path class="st4" d="M48.1,54.2H26.5c-1.9,0-3.5-1.5-3.5-3.5s1.5-3.5,3.5-3.5h21.6c1.9,0,3.5,1.5,3.5,3.5S50,54.2,48.1,54.2z"/>
</g>
</svg>
