<?xml version="1.0" encoding="utf-8"?>
<!-- Generator: Adobe Illustrator 27.9.0, SVG Export Plug-In . SVG Version: 6.00 Build 0)  -->
<svg version="1.1" id="Capa_1" xmlns="http://www.w3.org/2000/svg" xmlns:xlink="http://www.w3.org/1999/xlink" x="0px" y="0px"
	 viewBox="0 0 182.4 104.6" style="enable-background:new 0 0 182.4 104.6;" xml:space="preserve">
<style type="text/css">
	.st0{fill:#EAEAEA;}
	.st1{fill:#CA4592;}
	.st2{fill:#74BE88;}
	.st3{fill:#42A9E0;}
	.st4{fill:#E8481D;}
	.st5{enable-background:new    ;}
	.st6{fill:#FFFFFF;}
</style>
<g>
	<g>
		<path class="st0" d="M115.3,69c-1.8,0-3.3-1.3-3.4-3.1c-0.2-1.9,1.2-3.6,3.1-3.8c0.1,0,4.9-0.6,7.1-3.9c1.4-2,1.6-4.7,0.7-8.1
			c-1.6-6.2-1-11.2,1.7-14.6c0.3-0.4,0.6-0.7,0.9-1c-0.3-0.3-0.6-0.6-0.9-1c-2.7-3.5-3.3-8.4-1.7-14.6c0.9-3.4,0.6-6.2-0.7-8.1
			c-2.3-3.3-7-3.8-7.1-3.8c-1.9-0.2-3.3-1.9-3.1-3.8s1.9-3.3,3.8-3.1c0.3,0,8,0.9,12.1,6.7c2.6,3.7,3.2,8.3,1.8,13.8
			c-1,4-0.9,7,0.4,8.7c1.3,1.7,3.7,1.8,3.7,1.8c1.9,0,3.5,1.5,3.5,3.5c0,1.9-1.5,3.4-3.4,3.5c-0.1,0-2.5,0.1-3.8,1.8
			s-1.4,4.7-0.4,8.6c1.4,5.5,0.8,10.1-1.8,13.8c-4.1,5.9-11.7,6.7-12.1,6.7C115.6,69,115.5,69,115.3,69z M133.7,38L133.7,38
			L133.7,38z"/>
		<path class="st0" d="M67.1,69c-0.1,0-0.2,0-0.3,0c-0.3,0-8-0.9-12.1-6.7c-2.6-3.7-3.2-8.3-1.8-13.8c1-4,0.9-6.9-0.4-8.6
			c-1.3-1.7-3.7-1.8-3.8-1.8c-1.9,0-3.4-1.6-3.4-3.5s1.5-3.4,3.4-3.5c0.1,0,2.5-0.1,3.8-1.8c1.3-1.7,1.4-4.7,0.4-8.6
			c-1.4-5.5-0.8-10.1,1.8-13.8c4.1-6,11.7-6.9,12-6.9c1.9-0.2,3.6,1.2,3.8,3.1c0.2,1.9-1.2,3.6-3.1,3.8c-0.1,0-4.9,0.6-7.1,3.9
			c-1.4,2-1.6,4.7-0.7,8.1c1.6,6.2,1,11.2-1.7,14.6c-0.3,0.4-0.6,0.7-0.9,1c0.3,0.3,0.6,0.6,0.9,1c2.7,3.5,3.3,8.4,1.7,14.6
			c-0.9,3.4-0.6,6.2,0.7,8.1c2.3,3.3,7.1,3.8,7.1,3.9c1.9,0.2,3.3,1.9,3.1,3.8C70.3,67.7,68.8,69,67.1,69z M48.7,38L48.7,38L48.7,38
			z"/>
		<path class="st1" d="M113.9,24H71.8c-1.9,0-3.5-1.5-3.5-3.5c0-1.9,1.5-3.5,3.5-3.5h42.1c1.9,0,3.5,1.5,3.5,3.5
			C117.3,22.5,115.8,24,113.9,24z"/>
		<path class="st2" d="M80.9,39.1h-9.1c-1.9,0-3.5-1.5-3.5-3.5s1.5-3.5,3.5-3.5h9.1c1.9,0,3.5,1.5,3.5,3.5S82.8,39.1,80.9,39.1z"/>
		<path class="st3" d="M113.9,39.1H92c-1.9,0-3.5-1.5-3.5-3.5s1.5-3.5,3.5-3.5h21.9c1.9,0,3.5,1.5,3.5,3.5S115.8,39.1,113.9,39.1z"
			/>
		<path class="st4" d="M93.4,54.2H71.8c-1.9,0-3.5-1.5-3.5-3.5s1.5-3.5,3.5-3.5h21.6c1.9,0,3.5,1.5,3.5,3.5S95.3,54.2,93.4,54.2z"/>
	</g>
	<g class="st5">
		<path class="st6" d="M9.3,84.3c-1.1,0-1.9,0.4-2.5,1.3c-0.6,0.9-0.9,2.1-0.9,3.7c0,3.2,1.2,4.9,3.7,4.9c0.7,0,1.5-0.1,2.2-0.3
			s1.4-0.5,2.1-0.8V97c-1.4,0.6-3,0.9-4.8,0.9c-2.5,0-4.5-0.7-5.9-2.2c-1.4-1.5-2-3.6-2-6.4c0-1.7,0.3-3.3,1-4.6s1.6-2.3,2.8-3.1
			c1.2-0.7,2.7-1.1,4.4-1.1c1.8,0,3.6,0.4,5.2,1.2l-1.4,3.6c-0.6-0.3-1.2-0.5-1.9-0.7S10.1,84.3,9.3,84.3z"/>
		<path class="st6" d="M33,89.2c0,2.8-0.7,5-2.1,6.5c-1.4,1.5-3.4,2.2-6.1,2.2c-2.6,0-4.7-0.7-6.1-2.2c-1.4-1.5-2.1-3.6-2.1-6.5
			c0-2.8,0.7-5,2.1-6.4c1.4-1.5,3.4-2.2,6.1-2.2c2.7,0,4.7,0.7,6.1,2.2C32.3,84.2,33,86.4,33,89.2z M21.4,89.2
			c0,3.3,1.1,4.9,3.4,4.9c1.2,0,2-0.4,2.6-1.2c0.6-0.8,0.8-2,0.8-3.7c0-1.7-0.3-2.9-0.8-3.7s-1.4-1.2-2.5-1.2
			C22.5,84.3,21.4,85.9,21.4,89.2z"/>
		<path class="st6" d="M50.3,88.9c0,2.8-0.8,5-2.3,6.5c-1.6,1.5-3.7,2.3-6.5,2.3H36V80.8h5.8c2.7,0,4.8,0.7,6.3,2.1
			S50.3,86.3,50.3,88.9z M45.6,89c0-1.5-0.3-2.7-0.9-3.4c-0.6-0.7-1.5-1.1-2.8-1.1h-1.3v9.5h1c1.4,0,2.4-0.4,3-1.2
			S45.6,90.7,45.6,89z"/>
		<path class="st6" d="M63.4,97.7h-10V80.8h10v3.7h-5.5v2.7H63v3.7h-5.1V94h5.5V97.7z"/>
	</g>
	<g class="st5">
		<path class="st2" d="M73.8,84.3c-1.1,0-1.9,0.4-2.5,1.3c-0.6,0.9-0.9,2.1-0.9,3.7c0,3.2,1.2,4.9,3.7,4.9c0.7,0,1.5-0.1,2.2-0.3
			s1.4-0.5,2.1-0.8V97c-1.4,0.6-3,0.9-4.8,0.9c-2.5,0-4.5-0.7-5.9-2.2c-1.4-1.5-2-3.6-2-6.4c0-1.7,0.3-3.3,1-4.6s1.6-2.3,2.8-3.1
			c1.2-0.7,2.7-1.1,4.4-1.1c1.8,0,3.6,0.4,5.2,1.2l-1.4,3.6c-0.6-0.3-1.2-0.5-1.9-0.7S74.6,84.3,73.8,84.3z"/>
		<path class="st2" d="M86.2,91.5v6.1h-4.6V80.8h5.5c4.6,0,6.9,1.7,6.9,5c0,2-1,3.5-2.9,4.5l4.9,7.4H91l-3.6-6.1H86.2z M86.2,88.1
			h0.9c1.6,0,2.4-0.7,2.4-2.1c0-1.2-0.8-1.7-2.3-1.7h-0.9V88.1z"/>
		<path class="st2" d="M108,97.7l-0.8-3.2h-5.5l-0.9,3.2h-5l5.5-17h6.1l5.6,17H108z M106.3,90.8l-0.7-2.8c-0.2-0.6-0.4-1.4-0.6-2.4
			s-0.4-1.7-0.5-2.1c-0.1,0.4-0.2,1-0.4,1.9c-0.2,0.9-0.7,2.7-1.4,5.3H106.3z"/>
		<path class="st2" d="M119.3,97.7h-4.5V80.8h10v3.7h-5.5v3.2h5.1v3.7h-5.1V97.7z"/>
		<path class="st2" d="M135,97.7h-4.6V84.5h-4.1v-3.7h12.8v3.7H135V97.7z"/>
		<path class="st2" d="M151.6,97.7h-10V80.8h10v3.7h-5.5v2.7h5.1v3.7h-5.1V94h5.5V97.7z"/>
		<path class="st2" d="M159.1,91.5v6.1h-4.6V80.8h5.5c4.6,0,6.9,1.7,6.9,5c0,2-1,3.5-2.9,4.5l4.9,7.4h-5.2l-3.6-6.1H159.1z
			 M159.1,88.1h0.9c1.6,0,2.4-0.7,2.4-2.1c0-1.2-0.8-1.7-2.3-1.7h-0.9V88.1z"/>
		<path class="st2" d="M181.6,92.6c0,1-0.3,2-0.8,2.8c-0.5,0.8-1.3,1.4-2.3,1.9s-2.2,0.7-3.5,0.7c-1.1,0-2.1-0.1-2.8-0.2
			c-0.8-0.2-1.6-0.4-2.4-0.8v-4.1c0.9,0.4,1.8,0.8,2.7,1c0.9,0.3,1.8,0.4,2.6,0.4c0.7,0,1.2-0.1,1.5-0.4c0.3-0.2,0.5-0.5,0.5-0.9
			c0-0.2-0.1-0.4-0.2-0.6s-0.3-0.3-0.6-0.5c-0.3-0.2-1-0.5-2.2-1.1c-1.1-0.5-1.9-1-2.5-1.5c-0.6-0.5-1-1-1.2-1.6s-0.4-1.3-0.4-2.2
			c0-1.6,0.6-2.8,1.7-3.6s2.7-1.3,4.7-1.3c1.7,0,3.5,0.4,5.3,1.2l-1.4,3.5c-1.6-0.7-2.9-1.1-4.1-1.1c-0.6,0-1,0.1-1.3,0.3
			c-0.3,0.2-0.4,0.5-0.4,0.8c0,0.3,0.2,0.6,0.5,0.9s1.3,0.7,2.8,1.4c1.5,0.7,2.5,1.4,3,2.1C181.3,90.5,181.6,91.4,181.6,92.6z"/>
	</g>
</g>
</svg>
