<?xml version="1.0" encoding="utf-8"?>
<!-- Generator: Adobe Illustrator 27.9.0, SVG Export Plug-In . SVG Version: 6.00 Build 0)  -->
<svg version="1.1" id="Capa_1" xmlns="http://www.w3.org/2000/svg" xmlns:xlink="http://www.w3.org/1999/xlink" x="0px" y="0px"
	 viewBox="0 0 182.4 104.6" style="enable-background:new 0 0 182.4 104.6;" xml:space="preserve">
<style type="text/css">
	.st0{fill:#EAEAEA;}
	.st1{fill:#CA4592;}
	.st2{fill:#74BE88;}
	.st3{fill:#42A9E0;}
	.st4{fill:#E8481D;}
	.st5{fill:#FFFFFF;}
	.st6{font-family:'OpenSans-Extrabold';}
	.st7{font-size:23.6498px;}
</style>
<g>
	<g>
		<path class="st0" d="M115.3,69c-1.8,0-3.3-1.3-3.4-3.1c-0.2-1.9,1.2-3.6,3.1-3.8c0.1,0,4.9-0.6,7.1-3.9c1.4-2,1.6-4.7,0.7-8.1
			c-1.6-6.2-1-11.2,1.7-14.6c0.3-0.4,0.6-0.7,0.9-1c-0.3-0.3-0.6-0.6-0.9-1c-2.7-3.5-3.3-8.4-1.7-14.6c0.9-3.4,0.6-6.2-0.7-8.1
			c-2.3-3.3-7-3.8-7.1-3.8c-1.9-0.2-3.3-1.9-3.1-3.8s1.9-3.3,3.8-3.1c0.3,0,8,0.9,12.1,6.7c2.6,3.7,3.2,8.3,1.8,13.8
			c-1,4-0.9,7,0.4,8.7c1.3,1.7,3.7,1.8,3.7,1.8c1.9,0,3.5,1.5,3.5,3.5c0,1.9-1.5,3.4-3.4,3.5c-0.1,0-2.5,0.1-3.8,1.8
			c-1.3,1.7-1.4,4.7-0.4,8.6c1.4,5.5,0.8,10.1-1.8,13.8c-4.1,5.9-11.7,6.7-12.1,6.7C115.6,69,115.5,69,115.3,69z M133.7,38L133.7,38
			L133.7,38z"/>
		<path class="st0" d="M67.1,69c-0.1,0-0.2,0-0.3,0c-0.3,0-8-0.9-12.1-6.7c-2.6-3.7-3.2-8.3-1.8-13.8c1-4,0.9-6.9-0.4-8.6
			c-1.3-1.7-3.7-1.8-3.8-1.8c-1.9,0-3.4-1.6-3.4-3.5c0-1.9,1.5-3.4,3.4-3.5c0.1,0,2.5-0.1,3.8-1.8c1.3-1.7,1.4-4.7,0.4-8.6
			c-1.4-5.5-0.8-10.1,1.8-13.8C58.8,0.9,66.4,0,66.7,0c1.9-0.2,3.6,1.2,3.8,3.1c0.2,1.9-1.2,3.6-3.1,3.8c-0.1,0-4.9,0.6-7.1,3.9
			c-1.4,2-1.6,4.7-0.7,8.1c1.6,6.2,1,11.2-1.7,14.6c-0.3,0.4-0.6,0.7-0.9,1c0.3,0.3,0.6,0.6,0.9,1c2.7,3.5,3.3,8.4,1.7,14.6
			c-0.9,3.4-0.6,6.2,0.7,8.1c2.3,3.3,7.1,3.8,7.1,3.9c1.9,0.2,3.3,1.9,3.1,3.8C70.3,67.7,68.8,69,67.1,69z M48.7,38L48.7,38L48.7,38
			z"/>
		<path class="st1" d="M113.9,24H71.8c-1.9,0-3.5-1.5-3.5-3.5c0-1.9,1.5-3.5,3.5-3.5h42.1c1.9,0,3.5,1.5,3.5,3.5
			C117.3,22.5,115.8,24,113.9,24z"/>
		<path class="st2" d="M80.9,39.1h-9.1c-1.9,0-3.5-1.5-3.5-3.5s1.5-3.5,3.5-3.5h9.1c1.9,0,3.5,1.5,3.5,3.5S82.8,39.1,80.9,39.1z"/>
		<path class="st3" d="M113.9,39.1H92c-1.9,0-3.5-1.5-3.5-3.5s1.5-3.5,3.5-3.5h21.9c1.9,0,3.5,1.5,3.5,3.5S115.8,39.1,113.9,39.1z"
			/>
		<path class="st4" d="M93.4,54.2H71.8c-1.9,0-3.5-1.5-3.5-3.5s1.5-3.5,3.5-3.5h21.6c1.9,0,3.5,1.5,3.5,3.5S95.3,54.2,93.4,54.2z"/>
	</g>
	<text transform="matrix(1 0 0 1 -1.220703e-04 97.6788)"><tspan x="0" y="0" class="st5 st6 st7">CODE</tspan><tspan x="64.5" y="0" class="st2 st6 st7">CRAFTERS</tspan></text>
</g>
</svg>
